# xmcd
#
# Track frame offsets:
#	150
#	17025
#	34215
#	48605
#	67990
#	83520
#	109685
#	128975
#	146340
#	169515
#
# Disc length: 2501 seconds
#
# Revision: 0
# Processed by: cddbd v1.5.1PL2 Copyright (c) Steve Scherf et al.
# Submitted via: dBpowerAMP V4.0
#
DISCID=7c09c30a
DTITLE=Joaquin Sabina - En Compañia de la Ruleta
DYEAR=1987
DGENRE=Blues
TTITLE0=Carguen apunten fuego!!!
TTITLE1=Gulliver
TTITLE2=Manual para heroes y canallas
TTITLE3=Mi amigo Satan
TTITLE4=Ocupen su localidad
TTITLE5=Telespañolito
TTITLE6=Caballo de carton
TTITLE7=Guerra Mundial
TTITLE8=Por el túnel
TTITLE9=Circulos viciosos
EXTD=
EXTT0=
EXTT1=
EXTT2=
EXTT3=
EXTT4=
EXTT5=
EXTT6=
EXTT7=
EXTT8=
EXTT9=
PLAYORDER=
